<?xml version="1.0" encoding="utf-8"?>
<!-- Generator: Adobe Illustrator 19.2.1, SVG Export Plug-In . SVG Version: 6.00 Build 0)  -->
<svg version="1.1" id="Layer_1" xmlns="http://www.w3.org/2000/svg" xmlns:xlink="http://www.w3.org/1999/xlink" x="0px" y="0px"
	 viewBox="0 0 76.9 78.1" style="enable-background:new 0 0 76.9 78.1;" xml:space="preserve">
<style type="text/css">
	.st0{fill:#FFFFFF;}
</style>
<g>
	<path class="st0" d="M75.2,68.3L56.1,49.2c3.5-4.9,5.6-10.9,5.6-17.4c0-16.5-13.5-30-30-30s-30,13.5-30,30s13.5,30,30,30
		c6.5,0,12.5-2.1,17.4-5.6l19.1,19.1c1,1,2.3,1.5,3.5,1.5s2.6-0.5,3.5-1.5C77.2,73.4,77.2,70.2,75.2,68.3z M31.7,51.8
		c-11,0-20-9-20-20s9-20,20-20s20,9,20,20S42.7,51.8,31.7,51.8z"/>
</g>
</svg>
